<svg xmlns="http://www.w3.org/2000/svg" viewBox="0 0 24 24" fill="none">
  <!-- PayPay風: 角丸四角に斜めの「P」 -->
  <rect x="2" y="2" width="20" height="20" rx="4" fill="#666666"/>
  <!-- 背面のP（影） -->
  <g opacity="0.4">
    <path d="M10 4.5 L6.5 19.5" stroke="#ffffff" stroke-width="2.8" stroke-linecap="round"/>
    <path d="M5.5 7 C4 5.5 6 3.5 9 3.5 C13 3.5 18 4.5 18.5 8 C19 11.5 15 14 11 14 C7.5 14 5 12.5 6 11" stroke="#ffffff" stroke-width="2.5" stroke-linecap="round" fill="none"/>
  </g>
  <!-- 前面のP -->
  <g>
    <path d="M9 4 L5.5 19" stroke="#ffffff" stroke-width="2.8" stroke-linecap="round"/>
    <path d="M4.5 6.5 C3 5 5 3 8 3 C12 3 17 4 17.5 7.5 C18 11 14 13.5 10 13.5 C6.5 13.5 4 12 5 10.5" stroke="#ffffff" stroke-width="2.5" stroke-linecap="round" fill="none"/>
  </g>
</svg>
